<svg width="60" height="60" viewBox="0 0 60 60" fill="none" xmlns="http://www.w3.org/2000/svg">
<path d="M16.25 17.5C19.9033 13.8466 23.9838 11.0475 26.7438 9.35219C28.7553 8.11663 31.2446 8.11663 33.2562 9.35219C36.0161 11.0475 40.0966 13.8466 43.75 17.5C51.6709 25.4209 51.25 30 51.25 37.5C51.25 41.0246 50.9739 43.997 50.6813 46.1579C50.3734 48.4315 48.3904 50 46.0961 50H42.5C39.7385 50 37.5 47.7614 37.5 45V40C37.5 38.0109 36.7098 36.1032 35.3033 34.6967C33.8968 33.2902 31.9891 32.5 30 32.5C28.0109 32.5 26.1032 33.2902 24.6967 34.6967C23.2901 36.1032 22.5 38.0109 22.5 40V45C22.5 47.7614 20.2614 50 17.5 50H13.9039C11.6095 50 9.6266 48.4314 9.31868 46.1579C9.02603 43.997 8.74998 41.0245 8.74998 37.5C8.74998 30 8.32898 25.421 16.25 17.5Z" stroke="#001A72" stroke-width="5" stroke-linecap="round" stroke-linejoin="round"/>
</svg>
