<svg width="60" height="60" viewBox="0 0 60 60" fill="none" xmlns="http://www.w3.org/2000/svg">
<path d="M16.25 17.4998C19.9033 13.8464 23.9838 11.0472 26.7438 9.35196C28.7553 8.1164 31.2446 8.1164 33.2562 9.35196C36.0161 11.0472 40.0966 13.8464 43.75 17.4998C51.6709 25.4207 51.25 29.9998 51.25 37.4998C51.25 41.0243 50.9739 43.9968 50.6813 46.1576C50.3734 48.4312 48.3904 49.9998 46.0961 49.9998H42.5C39.7385 49.9998 37.5 47.7612 37.5 44.9998V39.9998C37.5 38.0106 36.7098 36.103 35.3033 34.6965C33.8968 33.2899 31.9891 32.4998 30 32.4998C28.0109 32.4998 26.1032 33.2899 24.6967 34.6965C23.2901 36.103 22.5 38.0106 22.5 39.9998V44.9998C22.5 47.7612 20.2614 49.9998 17.5 49.9998H13.9039C11.6095 49.9998 9.6266 48.4312 9.31868 46.1576C9.02603 43.9968 8.74998 41.0243 8.74998 37.4998C8.74998 29.9998 8.32898 25.4208 16.25 17.4998Z" stroke="white" stroke-width="5" stroke-linecap="round" stroke-linejoin="round"/>
</svg>
