<svg width="60" height="60" viewBox="0 0 60 60" fill="none" xmlns="http://www.w3.org/2000/svg">
<path d="M27.5 7.5H32.5C33.8807 7.5 35 8.61929 35 10V11.422C35 12.4915 35.7178 13.4206 36.7055 13.8307C37.6937 14.241 38.8442 14.0846 39.6007 13.3281L40.6065 12.3223C41.5828 11.346 43.1657 11.346 44.142 12.3223L47.6776 15.8578C48.6539 16.8341 48.6539 18.417 47.6776 19.3933L46.6719 20.399C45.9153 21.1556 45.759 22.3062 46.1692 23.2944C46.5794 24.2822 47.5086 25 48.5781 25L50 25C51.3807 25 52.5 26.1193 52.5 27.5V32.5C52.5 33.8807 51.3807 35 50 35H48.5781C47.5086 35 46.5794 35.7178 46.1693 36.7056C45.759 37.6938 45.9154 38.8443 46.6719 39.6009L47.6776 40.6066C48.6539 41.5829 48.6539 43.1658 47.6776 44.1421L44.1421 47.6776C43.1658 48.6539 41.5829 48.6539 40.6065 47.6776L39.6008 46.6719C38.8443 45.9154 37.6937 45.759 36.7056 46.1693C35.7178 46.5794 35 47.5086 35 48.5781V50C35 51.3807 33.8807 52.5 32.5 52.5H27.5C26.1193 52.5 25 51.3807 25 50V48.5781C25 47.5086 24.2822 46.5794 23.2944 46.1692C22.3062 45.759 21.1556 45.9153 20.399 46.6719L19.3933 47.6776C18.417 48.6539 16.8341 48.6539 15.8578 47.6776L12.3222 44.1421C11.3459 43.1658 11.3459 41.5829 12.3222 40.6065L13.3281 39.6007C14.0846 38.8442 14.241 37.6937 13.8307 36.7055C13.4206 35.7178 12.4915 35 11.422 35H10C8.61929 35 7.5 33.8807 7.5 32.5V27.5C7.5 26.1193 8.61929 25 10 25L11.4219 25C12.4914 25 13.4206 24.2822 13.8307 23.2944C14.241 22.3063 14.0846 21.1557 13.3281 20.3992L12.3223 19.3933C11.346 18.417 11.346 16.8341 12.3223 15.8578L15.8578 12.3223C16.8341 11.346 18.417 11.346 19.3933 12.3223L20.3991 13.3281C21.1557 14.0846 22.3062 14.241 23.2944 13.8307C24.2822 13.4206 25 12.4914 25 11.4219V10C25 8.61929 26.1193 7.5 27.5 7.5Z" stroke="white" stroke-width="5"/>
<path d="M35 30C35 32.7614 32.7614 35 30 35C27.2386 35 25 32.7614 25 30C25 27.2386 27.2386 25 30 25C32.7614 25 35 27.2386 35 30Z" stroke="white" stroke-width="5"/>
</svg>
